<?xml version="1.0" encoding="UTF-8" standalone="no"?>
<svg
   version="1.2"
   width="90.310005mm"
   height="41.906471mm"
   viewBox="0 0 9031.0006 4190.6471"
   preserveAspectRatio="xMidYMid"
   fill-rule="evenodd"
   stroke-width="28.222"
   stroke-linejoin="round"
   xml:space="preserve"
   id="svg523"
   sodipodi:docname="printBG.svg"
   inkscape:version="1.1.1 (3bf5ae0d25, 2021-09-20)"
   xmlns:inkscape="http://www.inkscape.org/namespaces/inkscape"
   xmlns:sodipodi="http://sodipodi.sourceforge.net/DTD/sodipodi-0.dtd"
   xmlns="http://www.w3.org/2000/svg"
   xmlns:svg="http://www.w3.org/2000/svg"
   xmlns:ooo="http://xml.openoffice.org/svg/export"><sodipodi:namedview
   id="namedview525"
   pagecolor="#ffffff"
   bordercolor="#666666"
   borderopacity="1.0"
   inkscape:pageshadow="2"
   inkscape:pageopacity="0.0"
   inkscape:pagecheckerboard="0"
   inkscape:document-units="mm"
   showgrid="false"
   fit-margin-top="0"
   fit-margin-left="0"
   fit-margin-right="0"
   fit-margin-bottom="0"
   inkscape:zoom="2.3528043"
   inkscape:cx="172.34753"
   inkscape:cy="100.09332"
   inkscape:window-width="1920"
   inkscape:window-height="1016"
   inkscape:window-x="0"
   inkscape:window-y="0"
   inkscape:window-maximized="1"
   inkscape:current-layer="svg523" />
 <defs
   class="ClipPathGroup"
   id="defs274">
  <clipPath
   id="presentation_clip_path"
   clipPathUnits="userSpaceOnUse">
   <rect
   x="0"
   y="0"
   width="21000"
   height="29700"
   id="rect268" />
  </clipPath>
  <clipPath
   id="presentation_clip_path_shrink"
   clipPathUnits="userSpaceOnUse">
   <rect
   x="21"
   y="29"
   width="20958"
   height="29641"
   id="rect271" />
  </clipPath>
 </defs>
 <defs
   class="TextShapeIndex"
   id="defs278">
  <g
   ooo:slide="id1"
   ooo:id-list="id3 id4 id5 id6 id7 id8 id9 id10 id11 id12 id13 id14 id15 id16 id17 id18 id19 id20 id21 id22 id23 id24 id25 id26 id27 id28 id29 id30"
   id="g276" />
 </defs>
 <defs
   class="EmbeddedBulletChars"
   id="defs310">
  <g
   id="bullet-char-template-57356"
   transform="matrix(4.8828125e-4,0,0,-4.8828125e-4,0,0)">
   <path
   d="M 580,1141 1163,571 580,0 -4,571 Z"
   id="path280" />
  </g>
  <g
   id="bullet-char-template-57354"
   transform="matrix(4.8828125e-4,0,0,-4.8828125e-4,0,0)">
   <path
   d="M 8,1128 H 1137 V 0 H 8 Z"
   id="path283" />
  </g>
  <g
   id="bullet-char-template-10146"
   transform="matrix(4.8828125e-4,0,0,-4.8828125e-4,0,0)">
   <path
   d="M 174,0 602,739 174,1481 1456,739 Z M 1358,739 309,1346 659,739 Z"
   id="path286" />
  </g>
  <g
   id="bullet-char-template-10132"
   transform="matrix(4.8828125e-4,0,0,-4.8828125e-4,0,0)">
   <path
   d="M 2015,739 1276,0 H 717 l 543,543 H 174 v 393 h 1086 l -543,545 h 557 z"
   id="path289" />
  </g>
  <g
   id="bullet-char-template-10007"
   transform="matrix(4.8828125e-4,0,0,-4.8828125e-4,0,0)">
   <path
   d="m 0,-2 c -7,16 -16,29 -25,39 l 381,530 c -94,256 -141,385 -141,387 0,25 13,38 40,38 9,0 21,-2 34,-5 21,4 42,12 65,25 l 27,-13 111,-251 280,301 64,-25 24,25 c 21,-10 41,-24 62,-43 C 886,937 835,863 770,784 769,783 710,716 594,584 L 774,223 c 0,-27 -21,-55 -63,-84 l 16,-20 C 717,90 699,76 672,76 641,76 570,178 457,381 L 164,-76 c -22,-34 -53,-51 -92,-51 -42,0 -63,17 -64,51 -7,9 -10,24 -10,44 0,9 1,19 2,30 z"
   id="path292" />
  </g>
  <g
   id="bullet-char-template-10004"
   transform="matrix(4.8828125e-4,0,0,-4.8828125e-4,0,0)">
   <path
   d="M 285,-33 C 182,-33 111,30 74,156 52,228 41,333 41,471 c 0,78 14,145 41,201 34,71 87,106 158,106 53,0 88,-31 106,-94 l 23,-176 c 8,-64 28,-97 59,-98 l 735,706 c 11,11 33,17 66,17 42,0 63,-15 63,-46 V 965 c 0,-36 -10,-64 -30,-84 L 442,47 C 390,-6 338,-33 285,-33 Z"
   id="path295" />
  </g>
  <g
   id="bullet-char-template-9679"
   transform="matrix(4.8828125e-4,0,0,-4.8828125e-4,0,0)">
   <path
   d="M 813,0 C 632,0 489,54 383,161 276,268 223,411 223,592 c 0,181 53,324 160,431 106,107 249,161 430,161 179,0 323,-54 432,-161 108,-107 162,-251 162,-431 0,-180 -54,-324 -162,-431 C 1136,54 992,0 813,0 Z"
   id="path298" />
  </g>
  <g
   id="bullet-char-template-8226"
   transform="matrix(4.8828125e-4,0,0,-4.8828125e-4,0,0)">
   <path
   d="m 346,457 c -73,0 -137,26 -191,78 -54,51 -81,114 -81,188 0,73 27,136 81,188 54,52 118,78 191,78 73,0 134,-26 185,-79 51,-51 77,-114 77,-187 0,-75 -25,-137 -76,-188 -50,-52 -112,-78 -186,-78 z"
   id="path301" />
  </g>
  <g
   id="bullet-char-template-8211"
   transform="matrix(4.8828125e-4,0,0,-4.8828125e-4,0,0)">
   <path
   d="M -4,459 H 1135 V 606 H -4 Z"
   id="path304" />
  </g>
  <g
   id="bullet-char-template-61548"
   transform="matrix(4.8828125e-4,0,0,-4.8828125e-4,0,0)">
   <path
   d="m 173,740 c 0,163 58,303 173,419 116,115 255,173 419,173 163,0 302,-58 418,-173 116,-116 174,-256 174,-419 0,-163 -58,-303 -174,-418 C 1067,206 928,148 765,148 601,148 462,206 346,322 231,437 173,577 173,740 Z"
   id="path307" />
  </g>
 </defs>
 <g
   id="g315"
   transform="translate(8046,-985)">
  <g
   id="id2"
   class="Master_Slide">
   <g
   id="bg-id2"
   class="Background" />
   <g
   id="bo-id2"
   class="BackgroundObjects" />
  </g>
 </g>
 <g
   class="SlideGroup"
   id="g521"
   transform="translate(-985,-985)">
  <g
   id="g519">
   <g
   id="container-id1">
    <g
   id="id1"
   class="Slide"
   clip-path="url(#presentation_clip_path)">
     <g
   class="Page"
   id="g515">
      <g
   class="Group"
   id="g513">
       <g
   class="com.sun.star.drawing.LineShape"
   id="g322">
        <g
   id="id3">
         <rect
   class="BoundingBox"
   stroke="none"
   fill="none"
   x="985"
   y="985"
   width="31"
   height="4031"
   id="rect317" />
         <path
   fill="none"
   stroke="#b4c7dc"
   stroke-width="30"
   stroke-linejoin="round"
   d="M 1000,1000 V 5000"
   id="path319" />
        </g>
       </g>
       <g
   class="com.sun.star.drawing.LineShape"
   id="g329">
        <g
   id="id4">
         <rect
   class="BoundingBox"
   stroke="none"
   fill="none"
   x="1492"
   y="992"
   width="17"
   height="4017"
   id="rect324" />
         <path
   fill="none"
   stroke="#b4c7dc"
   stroke-width="15"
   stroke-linejoin="round"
   d="M 1500,1000 V 5000"
   id="path326" />
        </g>
       </g>
       <g
   class="com.sun.star.drawing.LineShape"
   id="g336">
        <g
   id="id5">
         <rect
   class="BoundingBox"
   stroke="none"
   fill="none"
   x="1985"
   y="985"
   width="31"
   height="4031"
   id="rect331" />
         <path
   fill="none"
   stroke="#b4c7dc"
   stroke-width="30"
   stroke-linejoin="round"
   d="M 2000,1000 V 5000"
   id="path333" />
        </g>
       </g>
       <g
   class="com.sun.star.drawing.LineShape"
   id="g343">
        <g
   id="id6">
         <rect
   class="BoundingBox"
   stroke="none"
   fill="none"
   x="2492"
   y="992"
   width="17"
   height="4017"
   id="rect338" />
         <path
   fill="none"
   stroke="#b4c7dc"
   stroke-width="15"
   stroke-linejoin="round"
   d="M 2500,1000 V 5000"
   id="path340" />
        </g>
       </g>
       <g
   class="com.sun.star.drawing.LineShape"
   id="g350">
        <g
   id="id7">
         <rect
   class="BoundingBox"
   stroke="none"
   fill="none"
   x="2985"
   y="985"
   width="31"
   height="4031"
   id="rect345" />
         <path
   fill="none"
   stroke="#b4c7dc"
   stroke-width="30"
   stroke-linejoin="round"
   d="M 3000,1000 V 5000"
   id="path347" />
        </g>
       </g>
       <g
   class="com.sun.star.drawing.LineShape"
   id="g357">
        <g
   id="id8">
         <rect
   class="BoundingBox"
   stroke="none"
   fill="none"
   x="3492"
   y="992"
   width="17"
   height="4017"
   id="rect352" />
         <path
   fill="none"
   stroke="#b4c7dc"
   stroke-width="15"
   stroke-linejoin="round"
   d="M 3500,1000 V 5000"
   id="path354" />
        </g>
       </g>
       <g
   class="com.sun.star.drawing.LineShape"
   id="g364">
        <g
   id="id9">
         <rect
   class="BoundingBox"
   stroke="none"
   fill="none"
   x="3985"
   y="985"
   width="31"
   height="4031"
   id="rect359" />
         <path
   fill="none"
   stroke="#b4c7dc"
   stroke-width="30"
   stroke-linejoin="round"
   d="M 4000,1000 V 5000"
   id="path361" />
        </g>
       </g>
       <g
   class="com.sun.star.drawing.LineShape"
   id="g371">
        <g
   id="id10">
         <rect
   class="BoundingBox"
   stroke="none"
   fill="none"
   x="4492"
   y="992"
   width="17"
   height="4017"
   id="rect366" />
         <path
   fill="none"
   stroke="#b4c7dc"
   stroke-width="15"
   stroke-linejoin="round"
   d="M 4500,1000 V 5000"
   id="path368" />
        </g>
       </g>
       <g
   class="com.sun.star.drawing.LineShape"
   id="g378">
        <g
   id="id11">
         <rect
   class="BoundingBox"
   stroke="none"
   fill="none"
   x="4985"
   y="985"
   width="31"
   height="4031"
   id="rect373" />
         <path
   fill="none"
   stroke="#b4c7dc"
   stroke-width="30"
   stroke-linejoin="round"
   d="M 5000,1000 V 5000"
   id="path375" />
        </g>
       </g>
       <g
   class="com.sun.star.drawing.LineShape"
   id="g385">
        <g
   id="id12">
         <rect
   class="BoundingBox"
   stroke="none"
   fill="none"
   x="5492"
   y="992"
   width="17"
   height="4017"
   id="rect380" />
         <path
   fill="none"
   stroke="#b4c7dc"
   stroke-width="15"
   stroke-linejoin="round"
   d="M 5500,1000 V 5000"
   id="path382" />
        </g>
       </g>
       <g
   class="com.sun.star.drawing.LineShape"
   id="g392">
        <g
   id="id13">
         <rect
   class="BoundingBox"
   stroke="none"
   fill="none"
   x="5985"
   y="985"
   width="31"
   height="4031"
   id="rect387" />
         <path
   fill="none"
   stroke="#b4c7dc"
   stroke-width="30"
   stroke-linejoin="round"
   d="M 6000,1000 V 5000"
   id="path389" />
        </g>
       </g>
       <g
   class="com.sun.star.drawing.LineShape"
   id="g399">
        <g
   id="id14">
         <rect
   class="BoundingBox"
   stroke="none"
   fill="none"
   x="6492"
   y="992"
   width="17"
   height="4017"
   id="rect394" />
         <path
   fill="none"
   stroke="#b4c7dc"
   stroke-width="15"
   stroke-linejoin="round"
   d="M 6500,1000 V 5000"
   id="path396" />
        </g>
       </g>
       <g
   class="com.sun.star.drawing.LineShape"
   id="g406">
        <g
   id="id15">
         <rect
   class="BoundingBox"
   stroke="none"
   fill="none"
   x="6985"
   y="985"
   width="31"
   height="4031"
   id="rect401" />
         <path
   fill="none"
   stroke="#b4c7dc"
   stroke-width="30"
   stroke-linejoin="round"
   d="M 7000,1000 V 5000"
   id="path403" />
        </g>
       </g>
       <g
   class="com.sun.star.drawing.LineShape"
   id="g413">
        <g
   id="id16">
         <rect
   class="BoundingBox"
   stroke="none"
   fill="none"
   x="7492"
   y="992"
   width="17"
   height="4017"
   id="rect408" />
         <path
   fill="none"
   stroke="#b4c7dc"
   stroke-width="15"
   stroke-linejoin="round"
   d="M 7500,1000 V 5000"
   id="path410" />
        </g>
       </g>
       <g
   class="com.sun.star.drawing.LineShape"
   id="g420">
        <g
   id="id17">
         <rect
   class="BoundingBox"
   stroke="none"
   fill="none"
   x="7985"
   y="985"
   width="31"
   height="4031"
   id="rect415" />
         <path
   fill="none"
   stroke="#b4c7dc"
   stroke-width="30"
   stroke-linejoin="round"
   d="M 8000,1000 V 5000"
   id="path417" />
        </g>
       </g>
       <g
   class="com.sun.star.drawing.LineShape"
   id="g427">
        <g
   id="id18">
         <rect
   class="BoundingBox"
   stroke="none"
   fill="none"
   x="8492"
   y="992"
   width="17"
   height="4017"
   id="rect422" />
         <path
   fill="none"
   stroke="#b4c7dc"
   stroke-width="15"
   stroke-linejoin="round"
   d="M 8500,1000 V 5000"
   id="path424" />
        </g>
       </g>
       <g
   class="com.sun.star.drawing.LineShape"
   id="g434">
        <g
   id="id19">
         <rect
   class="BoundingBox"
   stroke="none"
   fill="none"
   x="8985"
   y="985"
   width="31"
   height="4031"
   id="rect429" />
         <path
   fill="none"
   stroke="#b4c7dc"
   stroke-width="30"
   stroke-linejoin="round"
   d="M 9000,1000 V 5000"
   id="path431" />
        </g>
       </g>
       <g
   class="com.sun.star.drawing.LineShape"
   id="g441">
        <g
   id="id20">
         <rect
   class="BoundingBox"
   stroke="none"
   fill="none"
   x="9492"
   y="992"
   width="17"
   height="4017"
   id="rect436" />
         <path
   fill="none"
   stroke="#b4c7dc"
   stroke-width="15"
   stroke-linejoin="round"
   d="M 9500,1000 V 5000"
   id="path438" />
        </g>
       </g>
       <g
   class="com.sun.star.drawing.LineShape"
   id="g448">
        <g
   id="id21">
         <rect
   class="BoundingBox"
   stroke="none"
   fill="none"
   x="9985"
   y="985"
   width="31"
   height="4031"
   id="rect443" />
         <path
   fill="none"
   stroke="#b4c7dc"
   stroke-width="30"
   stroke-linejoin="round"
   d="M 10000,1000 V 5000"
   id="path445" />
        </g>
       </g>
       <g
   class="com.sun.star.drawing.LineShape"
   id="g455">
        <g
   id="id22">
         <rect
   class="BoundingBox"
   stroke="none"
   fill="none"
   x="985"
   y="985"
   width="9031"
   height="31"
   id="rect450" />
         <path
   fill="none"
   stroke="#b4c7dc"
   stroke-width="30"
   stroke-linejoin="round"
   d="m 1000,1000 h 9000"
   id="path452" />
        </g>
       </g>
       <g
   class="com.sun.star.drawing.LineShape"
   id="g462">
        <g
   id="id23">
         <rect
   class="BoundingBox"
   stroke="none"
   fill="none"
   x="992"
   y="1492"
   width="9017"
   height="17"
   id="rect457" />
         <path
   fill="none"
   stroke="#b4c7dc"
   stroke-width="15"
   stroke-linejoin="round"
   d="m 1000,1500 h 9000"
   id="path459" />
        </g>
       </g>
       <g
   class="com.sun.star.drawing.LineShape"
   id="g469">
        <g
   id="id24">
         <rect
   class="BoundingBox"
   stroke="none"
   fill="none"
   x="985"
   y="1985"
   width="9031"
   height="31"
   id="rect464" />
         <path
   fill="none"
   stroke="#b4c7dc"
   stroke-width="30"
   stroke-linejoin="round"
   d="m 1000,2000 h 9000"
   id="path466" />
        </g>
       </g>
       <g
   class="com.sun.star.drawing.LineShape"
   id="g476">
        <g
   id="id25">
         <rect
   class="BoundingBox"
   stroke="none"
   fill="none"
   x="992"
   y="2492"
   width="9017"
   height="17"
   id="rect471" />
         <path
   fill="none"
   stroke="#b4c7dc"
   stroke-width="15"
   stroke-linejoin="round"
   d="m 1000,2500 h 9000"
   id="path473" />
        </g>
       </g>
       <g
   class="com.sun.star.drawing.LineShape"
   id="g483">
        <g
   id="id26">
         <rect
   class="BoundingBox"
   stroke="none"
   fill="none"
   x="985"
   y="2985"
   width="9031"
   height="31"
   id="rect478" />
         <path
   fill="none"
   stroke="#b4c7dc"
   stroke-width="30"
   stroke-linejoin="round"
   d="m 1000,3000 h 9000"
   id="path480" />
        </g>
       </g>
       <g
   class="com.sun.star.drawing.LineShape"
   id="g490">
        <g
   id="id27">
         <rect
   class="BoundingBox"
   stroke="none"
   fill="none"
   x="992"
   y="3492"
   width="9017"
   height="17"
   id="rect485" />
         <path
   fill="none"
   stroke="#b4c7dc"
   stroke-width="15"
   stroke-linejoin="round"
   d="m 1000,3500 h 9000"
   id="path487" />
        </g>
       </g>
       <g
   class="com.sun.star.drawing.LineShape"
   id="g497">
        <g
   id="id28">
         <rect
   class="BoundingBox"
   stroke="none"
   fill="none"
   x="985"
   y="3985"
   width="9031"
   height="31"
   id="rect492" />
         <path
   fill="none"
   stroke="#b4c7dc"
   stroke-width="30"
   stroke-linejoin="round"
   d="m 1000,4000 h 9000"
   id="path494" />
        </g>
       </g>
       <g
   class="com.sun.star.drawing.LineShape"
   id="g504">
        <g
   id="id29">
         <rect
   class="BoundingBox"
   stroke="none"
   fill="none"
   x="992"
   y="4492"
   width="9017"
   height="17"
   id="rect499" />
         <path
   fill="none"
   stroke="#b4c7dc"
   stroke-width="15"
   stroke-linejoin="round"
   d="m 1000,4500 h 9000"
   id="path501" />
        </g>
       </g>
       <g
   class="com.sun.star.drawing.LineShape"
   id="g511">
        <g
   id="id30">
         <rect
   class="BoundingBox"
   stroke="none"
   fill="none"
   x="985"
   y="4985"
   width="9031"
   height="31"
   id="rect506" />
         <path
   fill="none"
   stroke="#b4c7dc"
   stroke-width="30"
   stroke-linejoin="round"
   d="m 1000,5000 h 9000"
   id="path508" />
        </g>
       </g>
      </g>
     </g>
    </g>
   </g>
  </g>
 </g>
<rect
   style="opacity:1;fill:#ffffff;fill-opacity:1;stroke:#1caf87;stroke-width:40.1;stroke-miterlimit:4;stroke-dasharray:none;stroke-opacity:1"
   id="rect176"
   width="8244.252"
   height="556.15875"
   x="393.37408"
   y="3614.4382" /><text
   xml:space="preserve"
   style="font-style:normal;font-variant:normal;font-weight:normal;font-stretch:normal;font-size:282.222px;line-height:1.25;font-family:'Trebuchet MS';-inkscape-font-specification:'Trebuchet MS, Normal';font-variant-ligatures:normal;font-variant-caps:normal;font-variant-numeric:normal;font-variant-east-asian:normal;stroke-width:746.707"
   x="680.49225"
   y="4000.04"
   id="text5080"><tspan
     sodipodi:role="line"
     id="tspan12010"
     x="680.49225"
     y="4000.04">❑ J'ai réussi         ❑  J'ai essayé          ❑ Je ne sais pas faire</tspan></text></svg>
